<svg width="78" height="80" viewBox="0 0 78 80" fill="none" xmlns="http://www.w3.org/2000/svg">
<path d="M24.22 13.09C29.0267 13.09 33.1333 14.8633 36.54 18.41C39.9467 21.9567 41.65 26.32 41.65 31.5C41.65 36.6333 39.9467 40.9967 36.54 44.59C33.1333 48.1367 29.0267 49.91 24.22 49.91C18.9 49.91 14.8167 47.9267 11.97 43.96V49H4.41V-3.33786e-06H11.97V18.97C14.8167 15.05 18.9 13.09 24.22 13.09ZM15.12 39.55C17.22 41.65 19.8567 42.7 23.03 42.7C26.2033 42.7 28.84 41.65 30.94 39.55C33.04 37.4033 34.09 34.72 34.09 31.5C34.09 28.28 33.04 25.62 30.94 23.52C28.84 21.3733 26.2033 20.3 23.03 20.3C19.8567 20.3 17.22 21.3733 15.12 23.52C13.02 25.62 11.97 28.28 11.97 31.5C11.97 34.72 13.02 37.4033 15.12 39.55Z" fill="white"/>
<path d="M65.13 25H72.69V74H65.13V68.96C62.2833 72.9267 58.2 74.91 52.88 74.91C48.0733 74.91 43.9667 73.1367 40.56 69.59C37.1533 65.9967 35.45 61.6333 35.45 56.5C35.45 51.32 37.1533 46.9567 40.56 43.41C43.9667 39.8633 48.0733 38.09 52.88 38.09C58.2 38.09 62.2833 40.05 65.13 43.97V25ZM46.16 64.55C48.26 66.65 50.8967 67.7 54.07 67.7C57.2433 67.7 59.88 66.65 61.98 64.55C64.08 62.4033 65.13 59.72 65.13 56.5C65.13 53.28 64.08 50.62 61.98 48.52C59.88 46.3733 57.2433 45.3 54.07 45.3C50.8967 45.3 48.26 46.3733 46.16 48.52C44.06 50.62 43.01 53.28 43.01 56.5C43.01 59.72 44.06 62.4033 46.16 64.55Z" fill="white"/>
</svg>
