<svg xmlns="http://www.w3.org/2000/svg" viewBox="0 0 595.3 477.25">
  <g fill="white" id="Calque_2" data-name="Calque 2">
    <polygon points="243.3 61.91 243.3 477.25 352.23 477.25 352.23 0 243.3 61.91" />
  </g>
  <g fill="white" id="Calque_3" data-name="Calque 3">
    <path
      d="M811,582.5C811,668.38,734.66,738,640.5,738l-2.8,0C669.58,696.58,689,641.7,689,581.5c0-59.24-18.8-113.33-49.79-154.49h1.29C734.66,427,811,496.62,811,582.5Z"
      transform="translate(-215.7 -261.09)" />
    <path
      d="M215.7,582.5C215.7,668.38,292,738,386.2,738l2.8,0c-31.88-41.4-51.3-96.28-51.3-156.48,0-59.24,18.8-113.33,49.79-154.49H386.2C292,427,215.7,496.62,215.7,582.5Z"
      transform="translate(-215.7 -261.09)" />
  </g>
</svg>